<svg width="187" height="54" viewBox="0 0 187 54" fill="none" xmlns="http://www.w3.org/2000/svg">
<path d="M4.33301 0.181818H6.63414L11.4069 19.1875H11.6093L22.6569 0.181818H24.958L21.3358 22H19.4608L22.4012 4.38991H22.2307L11.9289 22H10.1178L5.69664 4.38991H5.52619L2.58585 22H0.710849L4.33301 0.181818ZM27.0621 28.1364C26.6856 28.1364 26.3376 28.1009 26.018 28.0298C25.7055 27.9588 25.4605 27.8807 25.2829 27.7955L26.0819 26.1229C26.6785 26.3288 27.2254 26.3928 27.7226 26.3146C28.2268 26.2436 28.7062 26.0021 29.1608 25.5902C29.6153 25.1783 30.0628 24.5639 30.5031 23.7472L31.398 22.0852L28.1594 5.63636H30.1302L32.6871 19.5284H32.8256L39.9953 5.63636H42.1366L32.0692 24.5675C31.6359 25.3842 31.1565 26.0554 30.6309 26.581C30.1125 27.1065 29.5514 27.4972 28.9477 27.7528C28.3511 28.0085 27.7226 28.1364 27.0621 28.1364ZM47.1357 0.181818H49.4369L54.2096 19.1875H54.412L65.4596 0.181818H67.7607L64.1386 22H62.2636L65.2039 4.38991H65.0335L54.7316 22H52.9205L48.4994 4.38991H48.3289L45.3886 22H43.5136L47.1357 0.181818ZM75.9798 22.3409C74.5452 22.3409 73.3378 21.9787 72.3577 21.2543C71.3776 20.5227 70.6851 19.5107 70.2803 18.218C69.8754 16.9254 69.808 15.4339 70.0779 13.7436C70.3477 12.0959 70.884 10.647 71.6865 9.39702C72.4962 8.13991 73.4905 7.16335 74.6695 6.46733C75.8485 5.7642 77.1304 5.41264 78.5154 5.41264C79.9571 5.41264 81.1645 5.77841 82.1375 6.50994C83.1176 7.24148 83.8101 8.25355 84.2149 9.54616C84.6269 10.8388 84.6979 12.3338 84.428 14.0312C84.1581 15.6719 83.6183 17.1172 82.8087 18.3672C81.999 19.6101 81.0047 20.5831 79.8257 21.2862C78.6539 21.9893 77.3719 22.3409 75.9798 22.3409ZM76.0012 20.6044C77.1659 20.6044 78.2029 20.2955 79.1119 19.6776C80.0281 19.0526 80.7845 18.2216 81.3811 17.1847C81.9777 16.1406 82.379 14.9936 82.585 13.7436C82.7767 12.5504 82.7554 11.4531 82.521 10.4517C82.2867 9.45028 81.8357 8.64773 81.1681 8.04403C80.5004 7.44034 79.6127 7.13849 78.5047 7.13849C77.347 7.13849 76.3101 7.45455 75.3939 8.08665C74.4777 8.71165 73.7213 9.54972 73.1247 10.6009C72.5281 11.6449 72.1304 12.7884 71.9316 14.0312C71.7327 15.2315 71.7469 16.3288 71.9742 17.3232C72.2085 18.3175 72.6595 19.1129 73.3271 19.7095C74.0019 20.3061 74.8932 20.6044 76.0012 20.6044ZM93.7045 22.3409C92.2698 22.3409 91.0624 21.9787 90.0823 21.2543C89.1022 20.5227 88.4097 19.5107 88.0049 18.218C87.6001 16.9254 87.5326 15.4339 87.8025 13.7436C88.0724 12.0959 88.6086 10.647 89.4111 9.39702C90.2208 8.13991 91.2151 7.16335 92.3941 6.46733C93.5731 5.7642 94.855 5.41264 96.24 5.41264C97.6817 5.41264 98.8891 5.77841 99.8621 6.50994C100.842 7.24148 101.535 8.25355 101.94 9.54616C102.351 10.8388 102.422 12.3338 102.153 14.0312C101.883 15.6719 101.343 17.1172 100.533 18.3672C99.7236 19.6101 98.7293 20.5831 97.5503 21.2862C96.3785 21.9893 95.0965 22.3409 93.7045 22.3409ZM93.7258 20.6044C94.8905 20.6044 95.9275 20.2955 96.8366 19.6776C97.7528 19.0526 98.5091 18.2216 99.1057 17.1847C99.7023 16.1406 100.104 14.9936 100.31 13.7436C100.501 12.5504 100.48 11.4531 100.246 10.4517C100.011 9.45028 99.5603 8.64773 98.8927 8.04403C98.2251 7.44034 97.3373 7.13849 96.2293 7.13849C95.0716 7.13849 94.0347 7.45455 93.1185 8.08665C92.2023 8.71165 91.4459 9.54972 90.8493 10.6009C90.2528 11.6449 89.855 12.7884 89.6562 14.0312C89.4573 15.2315 89.4715 16.3288 89.6988 17.3232C89.9332 18.3175 90.3841 19.1129 91.0518 19.7095C91.7265 20.3061 92.6178 20.6044 93.7258 20.6044ZM110.854 22.3409C109.511 22.3409 108.393 21.9858 107.498 21.2756C106.603 20.5653 105.978 19.5746 105.623 18.3033C105.268 17.032 105.229 15.5511 105.506 13.8608C105.79 12.1776 106.319 10.7038 107.093 9.43963C107.874 8.16832 108.83 7.18111 109.959 6.47798C111.095 5.76776 112.335 5.41264 113.677 5.41264C114.678 5.41264 115.477 5.5902 116.074 5.94531C116.678 6.29332 117.136 6.72656 117.448 7.24503C117.761 7.76349 117.984 8.26776 118.119 8.75781H118.29L119.717 0.181818H121.624L118.002 22H116.159L116.671 18.9638H116.436C116.131 19.4609 115.729 19.9723 115.232 20.4979C114.742 21.0163 114.139 21.4531 113.421 21.8082C112.704 22.1634 111.848 22.3409 110.854 22.3409ZM111.269 20.6044C112.328 20.6044 113.283 20.3168 114.135 19.7415C114.994 19.1591 115.712 18.3601 116.287 17.3445C116.869 16.3217 117.267 15.1499 117.48 13.8288C117.7 12.522 117.697 11.3679 117.47 10.3665C117.242 9.35795 116.802 8.5696 116.149 8.00142C115.495 7.42614 114.632 7.13849 113.56 7.13849C112.473 7.13849 111.507 7.43679 110.662 8.03338C109.817 8.62287 109.117 9.42187 108.563 10.4304C108.016 11.4389 107.636 12.5717 107.423 13.8288C107.217 15.1001 107.217 16.2472 107.423 17.2699C107.629 18.2926 108.048 19.1058 108.68 19.7095C109.32 20.3061 110.183 20.6044 111.269 20.6044ZM135.676 0.181818H137.668L135.048 15.9808C134.813 17.4013 134.377 18.5803 133.737 19.5178C133.105 20.4482 132.317 21.1442 131.372 21.6058C130.428 22.0675 129.373 22.2983 128.208 22.2983C127.058 22.2983 126.067 22.0888 125.236 21.6697C124.405 21.2436 123.791 20.6506 123.393 19.8906C123.002 19.1307 122.889 18.2429 123.052 17.2273H124.948C124.856 17.8878 124.934 18.4666 125.183 18.9638C125.438 19.4538 125.832 19.8338 126.365 20.1037C126.905 20.3736 127.541 20.5085 128.272 20.5085C129.06 20.5085 129.785 20.3416 130.445 20.0078C131.106 19.674 131.667 19.1662 132.129 18.4844C132.59 17.7955 132.91 16.9219 133.087 15.8636L135.676 0.181818ZM143.975 22.3729C142.988 22.3729 142.118 22.1811 141.365 21.7976C140.612 21.407 140.051 20.8459 139.682 20.1143C139.32 19.3757 139.22 18.4808 139.384 17.4297C139.526 16.62 139.796 15.9382 140.193 15.3842C140.598 14.8303 141.109 14.3757 141.727 14.0206C142.345 13.6584 143.055 13.3743 143.858 13.1683C144.661 12.9624 145.534 12.8061 146.479 12.6996C147.402 12.5859 148.19 12.4865 148.844 12.4013C149.497 12.3161 150.005 12.1811 150.367 11.9964C150.729 11.8118 150.946 11.5135 151.017 11.1016L151.081 10.718C151.266 9.60298 151.095 8.72585 150.57 8.08665C150.044 7.44034 149.163 7.11719 147.928 7.11719C146.749 7.11719 145.726 7.37997 144.859 7.90554C144 8.42401 143.361 9.03125 142.942 9.72727L141.259 9.07741C141.77 8.18253 142.399 7.46875 143.144 6.93608C143.89 6.39631 144.689 6.00923 145.541 5.77486C146.394 5.53338 147.235 5.41264 148.066 5.41264C148.691 5.41264 149.327 5.49432 149.973 5.65767C150.619 5.82102 151.198 6.10511 151.71 6.50994C152.228 6.90767 152.608 7.4652 152.85 8.18253C153.098 8.89276 153.134 9.79474 152.956 10.8885L151.102 22H149.206L149.643 19.4112H149.526C149.227 19.8942 148.815 20.3629 148.29 20.8175C147.771 21.272 147.15 21.6449 146.426 21.9361C145.701 22.2273 144.884 22.3729 143.975 22.3729ZM144.455 20.6364C145.463 20.6364 146.376 20.4126 147.193 19.9652C148.016 19.5178 148.691 18.9247 149.217 18.1861C149.749 17.4403 150.09 16.62 150.239 15.7251L150.634 13.3601C150.477 13.495 150.222 13.6158 149.867 13.7223C149.519 13.8288 149.124 13.9247 148.684 14.0099C148.251 14.0881 147.814 14.1555 147.374 14.2124C146.94 14.2692 146.557 14.3189 146.223 14.3615C145.278 14.4751 144.455 14.6527 143.752 14.8942C143.055 15.1357 142.498 15.4695 142.079 15.8956C141.66 16.3146 141.397 16.8544 141.291 17.5149C141.127 18.5092 141.344 19.2798 141.94 19.8267C142.544 20.3665 143.382 20.6364 144.455 20.6364ZM155.635 22L155.902 20.4979L167.482 7.56463L167.503 7.42614H158.469L158.767 5.63636H170.263L169.996 7.20241L158.597 20.0717L158.576 20.2102H168.174L167.876 22H155.635ZM171.544 22L171.81 20.4979L183.39 7.56463L183.411 7.42614H174.377L174.676 5.63636H186.171L185.904 7.20241L174.505 20.0717L174.484 20.2102H184.083L183.784 22H171.544Z" fill="white"/>
<line x1="24" y1="32.5" x2="162" y2="32.5" stroke="white"/>
<path d="M40.7439 40.8182V51H39.8142V40.8182H40.7439ZM44.0724 40.8182V41.7131C44.0724 41.9848 44.0226 42.2749 43.9232 42.5831C43.8271 42.888 43.6846 43.1847 43.4956 43.473C43.31 43.758 43.0847 44.0066 42.8195 44.2188L42.3373 43.7962C42.5858 43.5045 42.7963 43.1813 42.9687 42.8267C43.141 42.4687 43.2272 42.1025 43.2272 41.728V40.8182H44.0724ZM45.4134 51V43.3636H46.2735V44.5369H46.3531C46.5055 44.1425 46.7591 43.8326 47.1137 43.6072C47.4717 43.3786 47.9009 43.2642 48.4014 43.2642C48.9284 43.2642 49.3609 43.3885 49.699 43.6371C50.0403 43.8823 50.2955 44.2204 50.4646 44.6513H50.5292C50.7016 44.227 50.9816 43.8906 51.3694 43.642C51.7605 43.3902 52.2345 43.2642 52.7913 43.2642C53.5006 43.2642 54.0607 43.4879 54.4717 43.9354C54.8827 44.3795 55.0882 45.0291 55.0882 45.8842V51H54.2032V45.8842C54.2032 45.281 54.0491 44.8286 53.7409 44.527C53.4326 44.2254 53.0266 44.0746 52.5228 44.0746C51.9395 44.0746 51.4904 44.2536 51.1755 44.6115C50.8606 44.9695 50.7032 45.4235 50.7032 45.9737V51H49.7984V45.8047C49.7984 45.2876 49.6542 44.87 49.3659 44.5518C49.0775 44.2337 48.6715 44.0746 48.1478 44.0746C47.7965 44.0746 47.48 44.1607 47.1982 44.3331C46.9198 44.5054 46.6994 44.7457 46.537 45.054C46.3779 45.3589 46.2984 45.7102 46.2984 46.108V51H45.4134ZM63.5013 51.174C63.0406 51.174 62.6197 51.0845 62.2385 50.9055C61.8574 50.7232 61.5541 50.4614 61.3287 50.12C61.1034 49.7753 60.9907 49.3577 60.9907 48.8672C60.9907 48.4893 61.0619 48.1712 61.2045 47.9126C61.347 47.6541 61.5492 47.442 61.811 47.2763C62.0728 47.1106 62.3827 46.9796 62.7407 46.8835C63.0986 46.7874 63.493 46.7128 63.9239 46.6598C64.3515 46.6068 64.7127 46.5604 65.0077 46.5206C65.306 46.4808 65.5331 46.4179 65.6888 46.3317C65.8446 46.2455 65.9225 46.1063 65.9225 45.9141V45.7351C65.9225 45.2147 65.7667 44.8054 65.4552 44.5071C65.1469 44.2055 64.7028 44.0547 64.1228 44.0547C63.5726 44.0547 63.1235 44.1757 62.7755 44.4176C62.4308 44.6596 62.1888 44.9446 62.0496 45.2727L61.2094 44.9695C61.3818 44.5518 61.6204 44.2187 61.9253 43.9702C62.2303 43.7183 62.5716 43.5376 62.9495 43.4283C63.3273 43.3156 63.7101 43.2592 64.0979 43.2592C64.3896 43.2592 64.6929 43.2973 65.0077 43.3736C65.3259 43.4498 65.6209 43.5824 65.8927 43.7713C66.1644 43.9569 66.3849 44.2171 66.5539 44.5518C66.7229 44.8833 66.8074 45.3042 66.8074 45.8146V51H65.9225V49.7919H65.8678C65.7617 50.0173 65.6043 50.236 65.3955 50.4482C65.1867 50.6603 64.9249 50.8343 64.61 50.9702C64.2951 51.1061 63.9256 51.174 63.5013 51.174ZM63.6206 50.3636C64.0913 50.3636 64.499 50.2592 64.8437 50.0504C65.1884 49.8416 65.4535 49.5649 65.6391 49.2202C65.828 48.8722 65.9225 48.4893 65.9225 48.0717V46.968C65.8562 47.031 65.7452 47.0874 65.5894 47.1371C65.4369 47.1868 65.2596 47.2315 65.0574 47.2713C64.8586 47.3078 64.6597 47.3393 64.4608 47.3658C64.262 47.3923 64.083 47.4155 63.9239 47.4354C63.493 47.4884 63.1251 47.5713 62.8202 47.6839C62.5153 47.7966 62.2816 47.9524 62.1192 48.1513C61.9568 48.3468 61.8756 48.5987 61.8756 48.907C61.8756 49.371 62.0413 49.7306 62.3728 49.9858C62.7042 50.2377 63.1202 50.3636 63.6206 50.3636ZM70.0464 40.8182V51H69.1615V40.8182H70.0464ZM74.0834 51L71.7765 43.3636H72.7112L74.5209 49.6626H74.5855L76.3902 43.3636H77.3298L79.1196 49.6477H79.1892L80.9988 43.3636H81.9335L79.6267 51H78.7119L76.9023 44.7408H76.8078L74.9981 51H74.0834ZM85.7865 51.174C85.3258 51.174 84.9049 51.0845 84.5237 50.9055C84.1425 50.7232 83.8393 50.4614 83.6139 50.12C83.3885 49.7753 83.2758 49.3577 83.2758 48.8672C83.2758 48.4893 83.3471 48.1712 83.4896 47.9126C83.6321 47.6541 83.8343 47.442 84.0961 47.2763C84.358 47.1106 84.6679 46.9796 85.0258 46.8835C85.3838 46.7874 85.7782 46.7128 86.2091 46.6598C86.6366 46.6068 86.9979 46.5604 87.2929 46.5206C87.5912 46.4808 87.8182 46.4179 87.974 46.3317C88.1298 46.2455 88.2077 46.1063 88.2077 45.9141V45.7351C88.2077 45.2147 88.0519 44.8054 87.7403 44.5071C87.4321 44.2055 86.988 44.0547 86.4079 44.0547C85.8577 44.0547 85.4086 44.1757 85.0606 44.4176C84.7159 44.6596 84.474 44.9446 84.3348 45.2727L83.4946 44.9695C83.6669 44.5518 83.9056 44.2187 84.2105 43.9702C84.5154 43.7183 84.8568 43.5376 85.2346 43.4283C85.6125 43.3156 85.9953 43.2592 86.3831 43.2592C86.6747 43.2592 86.978 43.2973 87.2929 43.3736C87.6111 43.4498 87.906 43.5824 88.1778 43.7713C88.4496 43.9569 88.67 44.2171 88.839 44.5518C89.0081 44.8833 89.0926 45.3042 89.0926 45.8146V51H88.2077V49.7919H88.153C88.0469 50.0173 87.8895 50.236 87.6807 50.4482C87.4719 50.6603 87.21 50.8343 86.8952 50.9702C86.5803 51.1061 86.2107 51.174 85.7865 51.174ZM85.9058 50.3636C86.3765 50.3636 86.7841 50.2592 87.1288 50.0504C87.4735 49.8416 87.7387 49.5649 87.9243 49.2202C88.1132 48.8722 88.2077 48.4893 88.2077 48.0717V46.968C88.1414 47.031 88.0303 47.0874 87.8746 47.1371C87.7221 47.1868 87.5448 47.2315 87.3426 47.2713C87.1437 47.3078 86.9449 47.3393 86.746 47.3658C86.5471 47.3923 86.3682 47.4155 86.2091 47.4354C85.7782 47.4884 85.4103 47.5713 85.1054 47.6839C84.8005 47.7966 84.5668 47.9524 84.4044 48.1513C84.242 48.3468 84.1608 48.5987 84.1608 48.907C84.1608 49.371 84.3265 49.7306 84.6579 49.9858C84.9894 50.2377 85.4053 50.3636 85.9058 50.3636ZM91.7897 53.8636C91.614 53.8636 91.45 53.8471 91.2975 53.8139C91.145 53.7808 91.0241 53.7443 90.9346 53.7045L91.1732 52.924C91.4748 53.0168 91.7433 53.05 91.9786 53.0234C92.2139 53.0002 92.4227 52.8942 92.605 52.7053C92.7873 52.5196 92.9497 52.2346 93.0922 51.8501L93.3706 51.0746L90.5617 43.3636H91.5212L93.7883 49.8317H93.8579L96.1249 43.3636H97.0844L93.8529 52.2081C93.717 52.576 93.5496 52.8826 93.3508 53.1278C93.1519 53.3764 92.9215 53.5604 92.6597 53.6797C92.4012 53.8023 92.1112 53.8636 91.7897 53.8636ZM103.946 45.0391L103.136 45.2678C103.057 45.0391 102.944 44.8319 102.798 44.6463C102.652 44.4607 102.462 44.3132 102.226 44.2038C101.994 44.0945 101.706 44.0398 101.361 44.0398C100.844 44.0398 100.42 44.1624 100.089 44.4077C99.7571 44.6529 99.5914 44.9695 99.5914 45.3572C99.5914 45.6854 99.704 45.9522 99.9294 46.1577C100.158 46.3598 100.509 46.5206 100.983 46.6399L102.137 46.9233C102.776 47.0791 103.255 47.326 103.574 47.6641C103.895 48.0021 104.056 48.4264 104.056 48.9368C104.056 49.3677 103.937 49.7505 103.698 50.0852C103.459 50.42 103.126 50.6835 102.699 50.8757C102.274 51.0646 101.782 51.1591 101.222 51.1591C100.476 51.1591 99.8615 50.9917 99.3776 50.657C98.8937 50.3189 98.5838 49.8317 98.4479 49.1953L99.298 48.9865C99.4074 49.4406 99.6212 49.7836 99.9394 50.0156C100.261 50.2476 100.683 50.3636 101.207 50.3636C101.794 50.3636 102.263 50.2327 102.614 49.9709C102.965 49.7057 103.141 49.3743 103.141 48.9766C103.141 48.6683 103.038 48.4098 102.833 48.201C102.627 47.9889 102.316 47.8331 101.898 47.7337L100.65 47.4354C99.9874 47.2763 99.4969 47.0244 99.1787 46.6797C98.8605 46.335 98.7014 45.9074 98.7014 45.397C98.7014 44.9761 98.8158 44.6065 99.0445 44.2884C99.2732 43.9669 99.588 43.715 99.9891 43.5327C100.39 43.3504 100.848 43.2592 101.361 43.2592C102.061 43.2592 102.619 43.4183 103.037 43.7365C103.458 44.0514 103.761 44.4856 103.946 45.0391ZM113.973 40.8182H114.903V48.1612C114.899 48.8241 114.78 49.3776 114.545 49.8217C114.309 50.2625 113.985 50.5923 113.57 50.8111C113.156 51.0298 112.68 51.1392 112.143 51.1392C111.616 51.1392 111.146 51.0414 110.731 50.8459C110.317 50.6503 109.991 50.3752 109.752 50.0206C109.517 49.666 109.399 49.25 109.399 48.7727H110.314C110.314 49.0743 110.393 49.3411 110.552 49.5732C110.712 49.8018 110.929 49.9808 111.204 50.1101C111.482 50.2393 111.795 50.304 112.143 50.304C112.505 50.304 112.821 50.2277 113.093 50.0753C113.368 49.9228 113.583 49.6892 113.739 49.3743C113.895 49.0561 113.973 48.6518 113.973 48.1612V40.8182ZM119.556 51.174C119.095 51.174 118.674 51.0845 118.293 50.9055C117.912 50.7232 117.609 50.4614 117.383 50.12C117.158 49.7753 117.045 49.3577 117.045 48.8672C117.045 48.4893 117.117 48.1712 117.259 47.9126C117.402 47.6541 117.604 47.442 117.866 47.2763C118.128 47.1106 118.437 46.9796 118.795 46.8835C119.153 46.7874 119.548 46.7128 119.979 46.6598C120.406 46.6068 120.767 46.5604 121.062 46.5206C121.361 46.4808 121.588 46.4179 121.744 46.3317C121.899 46.2455 121.977 46.1063 121.977 45.9141V45.7351C121.977 45.2147 121.821 44.8054 121.51 44.5071C121.202 44.2055 120.757 44.0547 120.177 44.0547C119.627 44.0547 119.178 44.1757 118.83 44.4176C118.485 44.6596 118.244 44.9446 118.104 45.2727L117.264 44.9695C117.436 44.5518 117.675 44.2187 117.98 43.9702C118.285 43.7183 118.626 43.5376 119.004 43.4283C119.382 43.3156 119.765 43.2592 120.153 43.2592C120.444 43.2592 120.748 43.2973 121.062 43.3736C121.381 43.4498 121.676 43.5824 121.947 43.7713C122.219 43.9569 122.44 44.2171 122.609 44.5518C122.778 44.8833 122.862 45.3042 122.862 45.8146V51H121.977V49.7919H121.922C121.816 50.0173 121.659 50.236 121.45 50.4482C121.241 50.6603 120.98 50.8343 120.665 50.9702C120.35 51.1061 119.98 51.174 119.556 51.174ZM119.675 50.3636C120.146 50.3636 120.554 50.2592 120.898 50.0504C121.243 49.8416 121.508 49.5649 121.694 49.2202C121.883 48.8722 121.977 48.4893 121.977 48.0717V46.968C121.911 47.031 121.8 47.0874 121.644 47.1371C121.492 47.1868 121.314 47.2315 121.112 47.2713C120.913 47.3078 120.714 47.3393 120.516 47.3658C120.317 47.3923 120.138 47.4155 119.979 47.4354C119.548 47.4884 119.18 47.5713 118.875 47.6839C118.57 47.7966 118.336 47.9524 118.174 48.1513C118.012 48.3468 117.93 48.5987 117.93 48.907C117.93 49.371 118.096 49.7306 118.427 49.9858C118.759 50.2377 119.175 50.3636 119.675 50.3636ZM124.978 51V50.299L129.392 44.2635V44.1989H125.166V43.3636H130.531V44.0945L126.196 50.1001V50.1648H130.69V51H124.978ZM132.401 51V50.299L136.816 44.2635V44.1989H132.59V43.3636H137.955V44.0945L133.619 50.1001V50.1648H138.114V51H132.401ZM140.68 53.8636C140.505 53.8636 140.341 53.8471 140.188 53.8139C140.036 53.7808 139.915 53.7443 139.825 53.7045L140.064 52.924C140.365 53.0168 140.634 53.05 140.869 53.0234C141.105 53.0002 141.313 52.8942 141.496 52.7053C141.678 52.5196 141.84 52.2346 141.983 51.8501L142.261 51.0746L139.452 43.3636H140.412L142.679 49.8317H142.748L145.016 43.3636H145.975L142.744 52.2081C142.608 52.576 142.44 52.8826 142.241 53.1278C142.043 53.3764 141.812 53.5604 141.55 53.6797C141.292 53.8023 141.002 53.8636 140.68 53.8636Z" fill="white"/>
</svg>
